<mxfile host="app.diagrams.net" modified="2023-09-22T06:22:45.209Z" agent="Mozilla/5.0 (Windows NT 10.0; Win64; x64) AppleWebKit/537.36 (KHTML, like Gecko) Chrome/114.0.0.0 YaBrowser/23.7.5.734 Yowser/2.5 Safari/537.36" etag="1mUwFWVOgOOYp670CN_u" version="21.7.5" type="github">
  <diagram name="Страница — 1" id="jvkb7Z_AVvAjdhoQqOSj">
    <mxGraphModel dx="1626" dy="791" grid="1" gridSize="10" guides="1" tooltips="1" connect="1" arrows="1" fold="1" page="1" pageScale="1" pageWidth="827" pageHeight="1169" math="0" shadow="0">
      <root>
        <mxCell id="0" />
        <mxCell id="1" parent="0" />
        <mxCell id="zIQ9c6ViwpbR3DGy_JfX-1" value="&lt;font style=&quot;font-size: 24px;&quot;&gt;Классификация УБИ&lt;/font&gt;" style="rounded=0;whiteSpace=wrap;html=1;" vertex="1" parent="1">
          <mxGeometry x="260" y="120" width="300" height="120" as="geometry" />
        </mxCell>
        <mxCell id="zIQ9c6ViwpbR3DGy_JfX-2" value="&lt;font style=&quot;font-size: 18px;&quot;&gt;Источник угрозы&lt;/font&gt;" style="rounded=1;whiteSpace=wrap;html=1;" vertex="1" parent="1">
          <mxGeometry x="30" y="380" width="170" height="70" as="geometry" />
        </mxCell>
        <mxCell id="zIQ9c6ViwpbR3DGy_JfX-3" value="&lt;font style=&quot;font-size: 18px;&quot;&gt;Объект воздействия&lt;/font&gt;" style="rounded=1;whiteSpace=wrap;html=1;" vertex="1" parent="1">
          <mxGeometry x="230" y="380" width="170" height="70" as="geometry" />
        </mxCell>
        <mxCell id="zIQ9c6ViwpbR3DGy_JfX-4" value="&lt;font style=&quot;font-size: 18px;&quot;&gt;Объект воздействия&lt;/font&gt;" style="rounded=1;whiteSpace=wrap;html=1;" vertex="1" parent="1">
          <mxGeometry x="460" y="380" width="170" height="70" as="geometry" />
        </mxCell>
        <mxCell id="zIQ9c6ViwpbR3DGy_JfX-5" value="&lt;font style=&quot;font-size: 18px;&quot;&gt;Последствия&lt;/font&gt;" style="rounded=1;whiteSpace=wrap;html=1;" vertex="1" parent="1">
          <mxGeometry x="790" y="380" width="170" height="70" as="geometry" />
        </mxCell>
        <mxCell id="zIQ9c6ViwpbR3DGy_JfX-10" value="" style="swimlane;fontStyle=0;childLayout=stackLayout;horizontal=1;startSize=30;horizontalStack=0;resizeParent=1;resizeParentMax=0;resizeLast=0;collapsible=1;marginBottom=0;whiteSpace=wrap;html=1;" vertex="1" parent="1">
          <mxGeometry x="767.5" y="510" width="215" height="120" as="geometry" />
        </mxCell>
        <mxCell id="zIQ9c6ViwpbR3DGy_JfX-11" value="Нарушение конфиденциальности" style="text;strokeColor=none;fillColor=none;align=left;verticalAlign=middle;spacingLeft=4;spacingRight=4;overflow=hidden;points=[[0,0.5],[1,0.5]];portConstraint=eastwest;rotatable=0;whiteSpace=wrap;html=1;" vertex="1" parent="zIQ9c6ViwpbR3DGy_JfX-10">
          <mxGeometry y="30" width="215" height="30" as="geometry" />
        </mxCell>
        <mxCell id="zIQ9c6ViwpbR3DGy_JfX-12" value="Нарушение целостности" style="text;strokeColor=none;fillColor=none;align=left;verticalAlign=middle;spacingLeft=4;spacingRight=4;overflow=hidden;points=[[0,0.5],[1,0.5]];portConstraint=eastwest;rotatable=0;whiteSpace=wrap;html=1;" vertex="1" parent="zIQ9c6ViwpbR3DGy_JfX-10">
          <mxGeometry y="60" width="215" height="30" as="geometry" />
        </mxCell>
        <mxCell id="zIQ9c6ViwpbR3DGy_JfX-13" value="Нарушение доступности" style="text;strokeColor=none;fillColor=none;align=left;verticalAlign=middle;spacingLeft=4;spacingRight=4;overflow=hidden;points=[[0,0.5],[1,0.5]];portConstraint=eastwest;rotatable=0;whiteSpace=wrap;html=1;" vertex="1" parent="zIQ9c6ViwpbR3DGy_JfX-10">
          <mxGeometry y="90" width="215" height="30" as="geometry" />
        </mxCell>
        <mxCell id="zIQ9c6ViwpbR3DGy_JfX-14" value="" style="endArrow=classic;html=1;rounded=0;exitX=0.5;exitY=1;exitDx=0;exitDy=0;entryX=0.5;entryY=0;entryDx=0;entryDy=0;" edge="1" parent="1" source="zIQ9c6ViwpbR3DGy_JfX-5" target="zIQ9c6ViwpbR3DGy_JfX-10">
          <mxGeometry width="50" height="50" relative="1" as="geometry">
            <mxPoint x="700" y="510" as="sourcePoint" />
            <mxPoint x="750" y="460" as="targetPoint" />
          </mxGeometry>
        </mxCell>
        <mxCell id="zIQ9c6ViwpbR3DGy_JfX-15" value="List" style="swimlane;fontStyle=0;childLayout=stackLayout;horizontal=1;startSize=30;horizontalStack=0;resizeParent=1;resizeParentMax=0;resizeLast=0;collapsible=1;marginBottom=0;whiteSpace=wrap;html=1;" vertex="1" parent="1">
          <mxGeometry x="560" y="500" width="140" height="120" as="geometry" />
        </mxCell>
        <mxCell id="zIQ9c6ViwpbR3DGy_JfX-16" value="Item 1" style="text;strokeColor=none;fillColor=none;align=left;verticalAlign=middle;spacingLeft=4;spacingRight=4;overflow=hidden;points=[[0,0.5],[1,0.5]];portConstraint=eastwest;rotatable=0;whiteSpace=wrap;html=1;" vertex="1" parent="zIQ9c6ViwpbR3DGy_JfX-15">
          <mxGeometry y="30" width="140" height="30" as="geometry" />
        </mxCell>
        <mxCell id="zIQ9c6ViwpbR3DGy_JfX-17" value="Item 2" style="text;strokeColor=none;fillColor=none;align=left;verticalAlign=middle;spacingLeft=4;spacingRight=4;overflow=hidden;points=[[0,0.5],[1,0.5]];portConstraint=eastwest;rotatable=0;whiteSpace=wrap;html=1;" vertex="1" parent="zIQ9c6ViwpbR3DGy_JfX-15">
          <mxGeometry y="60" width="140" height="30" as="geometry" />
        </mxCell>
        <mxCell id="zIQ9c6ViwpbR3DGy_JfX-18" value="Item 3" style="text;strokeColor=none;fillColor=none;align=left;verticalAlign=middle;spacingLeft=4;spacingRight=4;overflow=hidden;points=[[0,0.5],[1,0.5]];portConstraint=eastwest;rotatable=0;whiteSpace=wrap;html=1;" vertex="1" parent="zIQ9c6ViwpbR3DGy_JfX-15">
          <mxGeometry y="90" width="140" height="30" as="geometry" />
        </mxCell>
      </root>
    </mxGraphModel>
  </diagram>
</mxfile>
